<svg width="1740" height="803" viewBox="0 0 1740 803" fill="none" xmlns="http://www.w3.org/2000/svg">
<g filter="url(#filter0_f_263_5302)">
<rect x="1278" y="282" width="273" height="271" rx="40" fill="#FFDB9C" fill-opacity="0.69"/>
</g>
<g filter="url(#filter1_f_263_5302)">
<rect x="171" y="171" width="186" height="181" rx="40" fill="#FFDB9C" fill-opacity="0.69"/>
</g>
<path fill-rule="evenodd" clip-rule="evenodd" d="M1222.79 241.12C1220.84 244.474 1221.54 243.948 1214.72 243.785C1208.75 243.69 1211.15 242.247 1207.11 246.631C1203.43 250.483 1197.03 255.335 1194.27 258.379C1196.34 260.882 1209.83 267.157 1213.54 270.259C1212.72 271.029 1212.04 271.552 1211.13 272.346C1209.75 273.711 1210.14 273.598 1207.87 272.964C1202.93 271.713 1187.07 267.626 1184.06 267.326C1180.97 269.936 1172.98 277.611 1169.67 278.354C1168.1 278.699 1165.46 278.934 1165.37 276.809C1165.21 271.603 1172.89 266.49 1177.66 262.43C1179.58 260.799 1179.06 261.166 1178.82 258.555C1178.59 255.626 1176.67 235.292 1177.24 234.053C1177.44 233.668 1180.11 231.398 1180.63 231.029C1181.44 232.727 1182.18 234.542 1182.81 236.399L1186.98 247.195C1187.47 248.877 1188.39 250.965 1189.13 252.465C1191.29 250.549 1193.43 248.646 1195.69 246.713C1206.73 236.657 1205.56 241.609 1206.57 233.599C1207.16 229.142 1206.37 226.798 1210.39 226.274C1212 234.393 1215.54 238.729 1222.79 241.12ZM1217.18 232.144C1215.88 233.051 1217.11 235.159 1218.63 234.295L1220.61 232.864C1221.84 232.075 1220.68 229.851 1219.16 230.714L1217.18 232.144ZM1482.78 212.848C1484.34 213.58 1485.11 211.208 1483.67 210.559L1482.48 210.048C1480.82 209.345 1480.05 211.717 1481.49 212.376L1482.78 212.848ZM1474.58 209.331C1476.11 209.961 1477 207.662 1475.57 207.002L1473.19 205.975C1471.66 205.345 1470.8 207.745 1472.32 208.364L1474.58 209.331ZM1465.37 205.573C1466.8 206.232 1467.8 203.904 1466.24 203.184L1463.89 202.257C1462.39 201.727 1461.4 204.056 1463.03 204.658L1465.37 205.573ZM1456.02 202.062C1457.65 202.665 1458.28 200.129 1456.79 199.701L1454.38 198.903C1452.75 198.301 1452.12 200.848 1453.61 201.264L1456.02 202.062ZM1446.56 198.908C1448.16 199.411 1448.82 196.975 1447.31 196.447L1444.92 195.749C1443.32 195.247 1442.55 197.619 1444.15 198.121L1446.56 198.908ZM1437.08 195.98C1438.55 196.41 1439.33 194.049 1437.63 193.575L1435.24 192.877C1433.77 192.447 1433 194.808 1434.6 195.31L1437.08 195.98ZM1427.39 193.426C1429.15 193.771 1429.49 191.319 1428 190.893L1425.55 190.323C1423.88 189.949 1423.45 192.429 1425.03 192.828L1427.39 193.426ZM1417.78 191.173C1419.42 191.446 1419.76 188.994 1418.21 188.692L1415.76 188.112C1414.12 187.838 1413.69 190.318 1415.33 190.592L1417.78 191.173ZM1407.97 189.304C1409.61 189.579 1410.04 187.099 1408.36 186.728L1405.97 186.348C1404.42 186.046 1403.86 188.453 1405.53 188.828L1407.97 189.304ZM1398.26 187.723C1399.96 187.868 1400.07 185.373 1398.46 185.2L1395.97 184.848C1394.36 184.674 1394.15 187.198 1395.76 187.372L1398.26 187.723ZM1378.52 185.725C1380.29 185.742 1380.08 183.23 1378.63 183.229L1376.09 183.106C1374.32 183.09 1374.53 185.601 1375.98 185.602L1378.52 185.725ZM1368.63 185.376C1370.21 185.45 1370.19 182.882 1368.61 182.809L1366.11 182.787C1364.45 182.831 1364.47 185.398 1366.12 185.354L1368.63 185.376ZM1358.76 185.458C1360.22 185.459 1360.43 182.946 1358.65 182.918L1356.17 182.995C1354.33 183.107 1354.76 185.652 1356.28 185.535L1358.76 185.458ZM1348.89 185.853C1350.52 185.709 1350.21 183.226 1348.68 183.342L1346.13 183.548C1344.51 183.692 1344.72 186.204 1346.33 186.062L1348.89 185.853ZM1339.05 186.771C1340.58 186.655 1340.47 184.115 1338.72 184.188C1337.92 184.31 1336.99 184.36 1336.2 184.494C1334.67 184.609 1334.79 187.149 1336.54 187.077C1337.33 186.943 1338.23 186.793 1339.05 186.771ZM1329.22 188.014C1330.91 187.741 1330.39 185.211 1328.82 185.556L1326.43 185.923C1324.74 186.196 1325.26 188.725 1326.82 188.381L1329.22 188.014ZM1319.51 189.751C1321.08 189.405 1320.68 186.947 1318.99 187.221L1316.53 187.716C1315.03 187.932 1315.37 190.516 1317.15 190.218L1319.51 189.751ZM1309.9 191.784C1311.57 191.411 1310.75 188.966 1309.32 189.383L1306.88 189.979C1305.22 190.352 1305.94 192.825 1307.47 192.38L1309.9 191.784ZM1300.33 194.341C1301.87 193.895 1301.25 191.394 1299.61 191.867C1298.85 192.09 1297.98 192.34 1297.21 192.563C1295.77 192.98 1296.29 195.51 1297.93 195.037C1298.8 194.783 1299.56 194.563 1300.33 194.341ZM1290.88 197.293C1292.56 196.592 1291.58 194.303 1290.07 194.848L1287.79 195.617C1286.19 196.19 1287.1 198.607 1288.61 198.062L1290.88 197.293ZM1281.62 200.509C1283.13 199.963 1282.22 197.546 1280.71 198.092L1278.36 198.989C1276.86 199.534 1277.77 201.951 1279.27 201.406L1281.62 200.509ZM1272.46 204.128C1273.87 203.611 1273.06 201.165 1271.48 201.84C1270.74 202.163 1269.9 202.514 1269.16 202.836C1267.75 203.354 1268.57 205.8 1270.14 205.125C1270.88 204.802 1271.62 204.479 1272.46 204.128ZM1263.42 208.135C1264.97 207.36 1263.71 205.164 1262.36 205.871L1260.03 206.871C1258.61 207.718 1259.77 209.952 1261.13 209.234L1263.42 208.135ZM1254.49 212.545C1255.94 211.799 1254.85 209.446 1253.4 210.181L1251.14 211.367C1249.78 212.086 1250.85 214.348 1252.3 213.603L1254.49 212.545ZM1245.82 217.099C1247.2 216.481 1246.1 214.129 1244.55 214.893L1242.42 216.15C1240.9 217.025 1242.35 219.164 1243.68 218.357L1245.82 217.099ZM1237.29 222.141C1238.69 221.205 1237.33 219.027 1235.93 219.962L1233.8 221.22C1232.37 222.056 1233.73 224.235 1235.16 223.399L1237.29 222.141ZM1228.81 227.386C1230.24 226.55 1228.95 224.243 1227.45 225.207L1225.45 226.538C1224.12 227.345 1225.28 229.579 1226.8 228.716L1228.81 227.386Z" fill="#FAB76B"/>
<path d="M1389.18 184.215C1390.79 184.388 1390.68 186.884 1388.97 186.738L1386.48 186.387C1384.86 186.213 1385.07 183.69 1386.68 183.863L1389.18 184.215Z" fill="#FAB76B"/>
<path d="M477.915 731.141C477.956 731.108 477.99 731.066 478.013 731.018C478.036 730.971 478.048 730.918 478.048 730.866L477.677 724.226L480.881 722.272C481.121 722.127 481.33 721.936 481.497 721.71C481.663 721.484 481.782 721.227 481.849 720.955C481.915 720.682 481.926 720.399 481.883 720.123C481.839 719.846 481.741 719.58 481.593 719.341L480.386 717.359C480.089 716.876 479.612 716.529 479.06 716.396C478.508 716.263 477.925 716.353 477.44 716.647L477.269 716.752L476.518 703.112L491.726 695.287C492.522 694.803 493.215 694.167 493.763 693.415C494.311 692.663 494.704 691.81 494.92 690.905L494.977 690.649L497.03 687.396C497.37 686.849 497.551 686.218 497.551 685.574C497.551 684.931 497.37 684.3 497.03 683.753V683.753C496.694 683.201 496.209 682.754 495.632 682.462C495.054 682.17 494.406 682.046 493.76 682.103L489.958 682.435C489.016 682.167 488.028 682.097 487.058 682.231C486.087 682.365 485.155 682.699 484.322 683.213L470.311 693.087L458.505 686.181L458.676 686.077C459.16 685.781 459.507 685.305 459.641 684.754C459.774 684.203 459.684 683.621 459.389 683.137L458.182 681.154C457.883 680.673 457.406 680.328 456.855 680.195C456.303 680.062 455.721 680.151 455.235 680.443L452.032 682.397L446.328 679.039C446.28 679.013 446.226 679 446.172 679C446.117 679 446.063 679.013 446.015 679.039L440.578 681.837C440.526 681.866 440.482 681.907 440.451 681.957C440.419 682.006 440.401 682.063 440.397 682.122C440.383 682.178 440.383 682.237 440.397 682.293C440.428 682.34 440.471 682.379 440.521 682.406L443.315 683.962L445.321 686.475L443.876 687.358C443.84 687.38 443.808 687.409 443.783 687.444C443.758 687.478 443.74 687.517 443.731 687.559C443.721 687.6 443.72 687.643 443.727 687.685C443.734 687.727 443.749 687.767 443.771 687.803L443.933 688.069L442.678 688.837C442.467 688.969 442.316 689.177 442.258 689.418C442.199 689.659 442.237 689.914 442.365 690.127L444.161 693.068C444.293 693.278 444.502 693.429 444.744 693.487C444.985 693.546 445.24 693.508 445.454 693.381L446.709 692.612L446.87 692.878C446.916 692.951 446.987 693.003 447.071 693.025C447.154 693.046 447.242 693.034 447.317 692.992L449.456 691.683L457.697 702.031L445.435 710.738L437.403 707.4L433.962 709.164L439.351 715.149L437.146 717.7L439.399 721.39L442.621 720.508L445.473 728.011L448.619 725.772L449.323 717.112L462.963 710.074L468.143 722.263L465.995 723.572C465.923 723.615 465.87 723.685 465.849 723.766C465.828 723.848 465.839 723.935 465.881 724.008L466.052 724.283L464.788 725.051C464.581 725.184 464.434 725.391 464.377 725.63C464.32 725.869 464.359 726.12 464.484 726.332L466.28 729.272C466.412 729.48 466.619 729.629 466.859 729.687C467.098 729.746 467.351 729.709 467.563 729.585L468.828 728.826L468.989 729.092C469.012 729.128 469.041 729.16 469.076 729.184C469.11 729.209 469.149 729.227 469.191 729.237C469.232 729.247 469.275 729.248 469.318 729.241C469.36 729.234 469.4 729.219 469.436 729.196L470.881 728.324L472.202 731.245L472.307 734.441C472.312 734.498 472.328 734.552 472.354 734.603C472.389 734.653 472.434 734.695 472.487 734.726C472.538 734.754 472.595 734.769 472.654 734.769C472.712 734.769 472.769 734.754 472.82 734.726L477.915 731.141ZM452.735 682.767L455.587 681.003C455.926 680.796 456.334 680.731 456.72 680.824C457.107 680.916 457.441 681.158 457.649 681.496L458.866 683.478C459.07 683.818 459.132 684.225 459.037 684.61C458.943 684.996 458.701 685.328 458.362 685.536L457.897 685.821L455.292 684.294L452.735 682.767ZM445.197 692.83C445.131 692.87 445.053 692.881 444.978 692.864C444.904 692.846 444.839 692.8 444.798 692.736L443.002 689.786C442.981 689.754 442.967 689.718 442.961 689.68C442.954 689.642 442.955 689.604 442.964 689.566C442.973 689.529 442.989 689.494 443.012 689.463C443.035 689.433 443.064 689.407 443.097 689.387L444.351 688.619L446.461 692.062L445.197 692.83ZM447.345 692.271L444.57 687.737L445.806 686.988L449.142 691.18L447.345 692.271ZM449.874 691.066L446.138 686.324L443.876 683.478C443.849 683.445 443.817 683.416 443.781 683.393L441.452 682.103L446.205 679.656L454.76 684.645L457.811 686.438L469.826 693.466L458.286 701.585L449.874 691.066ZM477.772 717.217C478.112 717.01 478.519 716.945 478.906 717.038C479.292 717.13 479.627 717.372 479.835 717.71L481.042 719.692C481.25 720.031 481.314 720.437 481.221 720.823C481.129 721.209 480.887 721.542 480.548 721.75L477.639 723.515L477.478 720.508L477.307 717.492L477.772 717.217ZM493.827 682.748C494.353 682.696 494.883 682.795 495.355 683.034C495.826 683.273 496.219 683.641 496.488 684.095V684.095C496.77 684.539 496.919 685.054 496.919 685.579C496.919 686.105 496.77 686.619 496.488 687.064L495.129 689.226L495.129 689.131C495.129 688.884 495.11 688.636 495.072 688.391C495.081 688.319 495.081 688.246 495.072 688.173C495.034 687.895 494.977 687.619 494.901 687.348L494.901 687.272C494.825 687.021 494.736 686.774 494.635 686.532L494.54 686.333C494.426 686.068 494.292 685.811 494.141 685.565C493.989 685.318 493.817 685.081 493.646 684.854L493.504 684.683C493.333 684.481 493.152 684.288 492.962 684.104L492.914 684.057C492.704 683.867 492.481 683.689 492.249 683.526L492.078 683.402C491.87 683.26 491.654 683.13 491.432 683.013C491.409 682.994 491.383 682.978 491.356 682.966L493.827 682.748ZM489.816 683.07C491.365 683.521 492.688 684.537 493.523 685.916C494.362 687.293 494.653 688.935 494.34 690.516L494.283 690.782C493.884 692.44 492.841 693.873 491.384 694.765L476.042 702.676L463.086 709.315L443.021 719.673L442.146 718.241C444.522 716.787 446.899 715.339 449.275 713.897C449.482 713.766 449.63 713.56 449.688 713.322C449.747 713.084 449.711 712.833 449.588 712.622C449.465 712.41 449.265 712.254 449.03 712.185C448.795 712.117 448.542 712.142 448.325 712.256L441.186 716.591L440.34 715.206L470.529 693.779L470.634 693.713L484.569 683.744C485.342 683.271 486.206 682.965 487.105 682.847C488.004 682.73 488.918 682.802 489.787 683.061L489.816 683.07ZM435.084 709.353L437.517 708.101L444.798 711.127L439.95 714.684L439.95 714.608L439.903 714.665L435.084 709.353ZM439.779 720.641L438.021 717.795L439.817 715.718L440.587 716.989C440.369 717.122 440.213 717.337 440.153 717.585C440.094 717.833 440.135 718.094 440.269 718.312C440.402 718.53 440.617 718.685 440.866 718.745C441.114 718.805 441.377 718.763 441.595 718.63L442.403 719.948L439.779 720.641ZM448.106 725.383L445.882 726.967L443.325 720.328L443.401 720.328L443.401 720.261L448.781 717.586L448.106 725.383ZM467.335 729.006C467.268 729.045 467.189 729.055 467.114 729.036C467.04 729.016 466.976 728.968 466.936 728.902L465.13 725.962C465.11 725.928 465.096 725.891 465.09 725.852C465.084 725.813 465.087 725.774 465.096 725.736C465.106 725.698 465.123 725.662 465.147 725.631C465.171 725.6 465.201 725.573 465.235 725.554L466.489 724.795L468.6 728.238L467.335 729.006ZM469.474 728.447L466.708 723.913L468.505 722.813L468.714 723.268L470.719 727.698L469.474 728.447ZM472.953 731.122L472.953 731.008L471.461 727.688L468.98 722.225L463.657 709.79L474.607 704.099L475.9 703.425L476.67 717.311L476.869 720.783L477.411 730.704L473.058 733.796L472.953 731.122Z" fill="#FAB76B"/>
<path d="M565.364 770.029C565.406 769.996 565.439 769.955 565.462 769.907C565.485 769.859 565.497 769.807 565.497 769.754L565.126 763.115L568.33 761.161C568.57 761.016 568.78 760.825 568.946 760.599C569.112 760.373 569.232 760.116 569.298 759.843C569.364 759.571 569.376 759.288 569.332 759.011C569.288 758.734 569.19 758.469 569.043 758.23L567.836 756.248C567.538 755.764 567.062 755.418 566.509 755.285C565.957 755.151 565.374 755.242 564.889 755.536L564.718 755.64L563.967 742.001L579.175 734.176C579.972 733.692 580.664 733.056 581.212 732.304C581.76 731.552 582.154 730.698 582.369 729.794L582.426 729.538L584.48 726.284C584.82 725.737 585 725.107 585 724.463C585 723.819 584.82 723.189 584.48 722.642V722.642C584.143 722.09 583.659 721.642 583.081 721.351C582.503 721.059 581.855 720.935 581.21 720.992L577.408 721.324C576.465 721.055 575.478 720.986 574.507 721.12C573.537 721.254 572.605 721.588 571.771 722.101L557.76 731.975L545.954 725.07L546.125 724.966C546.61 724.669 546.956 724.194 547.09 723.642C547.224 723.091 547.133 722.51 546.838 722.025L545.631 720.043C545.332 719.562 544.855 719.217 544.304 719.084C543.752 718.951 543.17 719.04 542.684 719.332L539.481 721.286L533.778 717.928C533.729 717.902 533.676 717.889 533.621 717.889C533.566 717.889 533.512 717.902 533.464 717.928L528.027 720.726C527.975 720.754 527.932 720.795 527.9 720.845C527.869 720.895 527.85 720.952 527.846 721.01C527.832 721.067 527.832 721.125 527.846 721.181C527.878 721.229 527.92 721.268 527.97 721.295L530.764 722.851L532.77 725.364L531.325 726.246C531.289 726.269 531.257 726.298 531.232 726.332C531.207 726.367 531.19 726.406 531.18 726.447C531.17 726.489 531.169 726.532 531.176 726.574C531.183 726.616 531.198 726.656 531.221 726.692L531.382 726.958L530.128 727.726C529.917 727.857 529.766 728.066 529.707 728.307C529.648 728.548 529.687 728.803 529.814 729.016L531.61 731.956C531.742 732.167 531.951 732.317 532.193 732.376C532.434 732.435 532.689 732.396 532.903 732.269L534.158 731.501L534.319 731.767C534.365 731.839 534.437 731.892 534.52 731.913C534.603 731.934 534.691 731.923 534.766 731.88L536.905 730.571L545.146 740.92L532.884 749.627L524.852 746.288L521.411 748.052L526.801 754.037L524.595 756.589L526.848 760.279L530.071 759.397L532.922 766.899L536.068 764.661L536.772 756.001L550.412 748.963L555.593 761.151L553.444 762.46C553.372 762.504 553.319 762.574 553.298 762.655C553.277 762.737 553.288 762.823 553.33 762.897L553.501 763.172L552.237 763.94C552.03 764.073 551.883 764.28 551.826 764.519C551.77 764.758 551.808 765.009 551.933 765.22L553.73 768.161C553.861 768.369 554.068 768.518 554.308 768.576C554.547 768.634 554.8 768.598 555.013 768.474L556.277 767.715L556.439 767.981C556.461 768.017 556.49 768.048 556.525 768.073C556.559 768.098 556.599 768.116 556.64 768.126C556.682 768.135 556.725 768.137 556.767 768.13C556.809 768.123 556.849 768.107 556.885 768.085L558.33 767.212L559.651 770.134L559.756 773.33C559.762 773.386 559.778 773.441 559.803 773.491C559.838 773.542 559.884 773.584 559.937 773.615C559.987 773.643 560.045 773.658 560.103 773.658C560.161 773.658 560.218 773.643 560.269 773.615L565.364 770.029ZM540.184 721.655L543.036 719.891C543.375 719.684 543.783 719.62 544.169 719.712C544.556 719.805 544.89 720.047 545.099 720.384L546.315 722.367C546.519 722.707 546.581 723.114 546.487 723.499C546.392 723.884 546.15 724.217 545.811 724.425L545.346 724.71L542.741 723.183L540.184 721.655ZM532.646 731.719C532.581 731.758 532.502 731.77 532.428 731.752C532.353 731.735 532.288 731.689 532.247 731.624L530.451 728.674C530.43 728.642 530.416 728.606 530.41 728.569C530.403 728.531 530.405 728.492 530.413 728.455C530.422 728.418 530.439 728.383 530.461 728.352C530.484 728.321 530.513 728.295 530.546 728.276L531.8 727.508L533.911 730.951L532.646 731.719ZM534.795 731.16L532.019 726.626L533.255 725.876L536.591 730.069L534.795 731.16ZM537.323 729.955L533.588 725.212L531.325 722.367C531.298 722.334 531.266 722.305 531.23 722.282L528.901 720.992L533.654 718.544L542.209 723.534L545.26 725.326L557.275 732.355L545.735 740.474L537.323 729.955ZM565.222 756.105C565.561 755.898 565.968 755.834 566.355 755.926C566.742 756.019 567.076 756.261 567.284 756.598L568.491 758.581C568.699 758.919 568.763 759.326 568.671 759.712C568.578 760.098 568.336 760.431 567.997 760.639L565.088 762.403L564.927 759.397L564.756 756.38L565.222 756.105ZM581.276 721.636C581.802 721.585 582.332 721.684 582.804 721.923C583.275 722.161 583.669 722.529 583.938 722.983V722.983C584.219 723.428 584.368 723.942 584.368 724.468C584.368 724.993 584.219 725.508 583.938 725.952L582.578 728.115L582.578 728.02C582.578 727.772 582.559 727.525 582.521 727.28C582.531 727.208 582.531 727.134 582.521 727.062C582.484 726.783 582.426 726.508 582.35 726.237L582.35 726.161C582.274 725.91 582.185 725.663 582.084 725.421L581.989 725.222C581.875 724.956 581.742 724.7 581.59 724.454C581.438 724.207 581.267 723.97 581.096 723.742L580.953 723.571C580.782 723.37 580.601 723.176 580.411 722.993L580.364 722.945C580.153 722.755 579.931 722.578 579.698 722.414L579.527 722.291C579.319 722.149 579.104 722.019 578.881 721.902C578.858 721.883 578.832 721.867 578.805 721.855L581.276 721.636ZM577.265 721.959C578.815 722.41 580.138 723.426 580.972 724.805C581.811 726.182 582.103 727.823 581.789 729.405L581.732 729.67C581.333 731.329 580.29 732.762 578.833 733.654L563.492 741.565L550.536 748.204L530.47 758.562L529.595 757.13C531.972 755.675 534.348 754.227 536.724 752.785C536.931 752.654 537.079 752.448 537.138 752.211C537.196 751.973 537.16 751.722 537.037 751.51C536.915 751.299 536.715 751.142 536.479 751.074C536.244 751.006 535.991 751.031 535.774 751.145L528.635 755.479L527.789 754.094L557.978 732.668L558.083 732.601L572.018 722.632C572.791 722.159 573.655 721.854 574.554 721.736C575.453 721.618 576.367 721.691 577.236 721.95L577.265 721.959ZM522.533 748.242L524.966 746.99L532.247 750.016L527.399 753.573L527.399 753.497L527.352 753.554L522.533 748.242ZM527.228 759.529L525.47 756.684L527.266 754.607L528.036 755.878C527.818 756.011 527.662 756.225 527.603 756.473C527.543 756.721 527.584 756.983 527.718 757.201C527.852 757.418 528.066 757.574 528.315 757.634C528.564 757.693 528.826 757.652 529.044 757.519L529.852 758.837L527.228 759.529ZM535.555 764.272L533.331 765.856L530.774 759.216L530.85 759.216L530.85 759.15L536.23 756.475L535.555 764.272ZM554.785 767.895C554.718 767.933 554.638 767.944 554.564 767.924C554.489 767.905 554.425 767.857 554.385 767.791L552.579 764.85C552.559 764.817 552.545 764.78 552.54 764.741C552.534 764.702 552.536 764.663 552.545 764.625C552.555 764.587 552.572 764.551 552.596 764.52C552.62 764.488 552.65 764.462 552.684 764.443L553.939 763.684L556.049 767.127L554.785 767.895ZM556.923 767.336L554.157 762.802L555.954 761.701L556.163 762.157L558.169 766.586L556.923 767.336ZM560.402 770.01L560.402 769.897L558.91 766.577L556.429 761.113L551.106 748.678L562.056 742.987L563.349 742.314L564.119 756.2L564.319 759.672L564.86 769.593L560.507 772.685L560.402 770.01Z" fill="#FAB76B"/>
<path d="M423.519 765.589L423.324 764.865C423.314 764.826 423.311 764.785 423.317 764.745C423.322 764.704 423.336 764.666 423.357 764.631C423.378 764.596 423.406 764.565 423.438 764.541C423.471 764.517 423.509 764.5 423.548 764.491C423.588 764.48 423.629 764.478 423.669 764.484C423.71 764.489 423.748 764.503 423.783 764.524C423.818 764.544 423.849 764.572 423.873 764.605C423.897 764.638 423.914 764.675 423.923 764.715C424.083 765.31 424.241 765.897 424.396 766.474C424.419 766.552 424.412 766.636 424.374 766.708C424.337 766.781 424.272 766.836 424.195 766.861C424.115 766.883 424.03 766.873 423.958 766.834C423.885 766.795 423.83 766.73 423.804 766.652L423.519 765.589ZM422.951 763.109C422.791 762.513 422.732 761.891 422.646 761.276C422.64 761.236 422.642 761.195 422.652 761.156C422.662 761.117 422.68 761.081 422.704 761.049C422.729 761.017 422.759 760.99 422.794 760.969C422.829 760.949 422.867 760.936 422.907 760.931C422.947 760.925 422.988 760.927 423.027 760.937C423.066 760.947 423.103 760.965 423.135 760.989C423.167 761.014 423.194 761.044 423.214 761.079C423.235 761.114 423.248 761.152 423.253 761.192C423.337 761.798 423.439 762.399 423.558 762.986C423.572 763.067 423.554 763.149 423.507 763.217C423.461 763.284 423.39 763.331 423.31 763.347C423.271 763.355 423.23 763.355 423.191 763.347C423.152 763.34 423.114 763.324 423.081 763.302C423.048 763.28 423.019 763.252 422.997 763.219C422.974 763.185 422.959 763.148 422.951 763.109V763.109ZM424.38 768.432C424.36 768.358 424.367 768.279 424.402 768.21C424.436 768.141 424.494 768.087 424.565 768.059C424.643 768.032 424.728 768.037 424.802 768.073C424.875 768.108 424.933 768.171 424.961 768.247C425.132 768.702 425.308 769.137 425.509 769.593L425.648 769.929C425.665 769.966 425.675 770.006 425.676 770.046C425.677 770.087 425.67 770.127 425.656 770.165C425.641 770.203 425.619 770.237 425.591 770.266C425.563 770.295 425.529 770.319 425.492 770.335C425.418 770.366 425.335 770.366 425.26 770.336C425.186 770.307 425.126 770.249 425.095 770.176L424.946 769.842C424.747 769.395 424.571 768.96 424.388 768.46L424.38 768.432ZM422.389 759.479L422.377 759.433C422.323 758.829 422.273 758.204 422.245 757.583C422.242 757.503 422.27 757.424 422.324 757.364C422.377 757.304 422.452 757.267 422.532 757.261C422.573 757.258 422.614 757.263 422.653 757.277C422.692 757.29 422.728 757.311 422.758 757.339C422.789 757.367 422.813 757.4 422.83 757.438C422.847 757.475 422.856 757.515 422.857 757.556C422.893 758.166 422.929 758.775 422.992 759.376C422.999 759.457 422.974 759.536 422.922 759.598C422.871 759.66 422.796 759.698 422.716 759.705C422.65 759.702 422.586 759.676 422.535 759.633C422.485 759.59 422.449 759.531 422.435 759.466L422.389 759.479ZM425.862 771.787C425.845 771.719 425.851 771.648 425.881 771.584C425.911 771.521 425.961 771.47 426.024 771.439C426.06 771.42 426.099 771.408 426.14 771.404C426.18 771.4 426.221 771.405 426.259 771.418C426.298 771.43 426.333 771.451 426.363 771.478C426.394 771.505 426.418 771.538 426.435 771.575C426.704 772.102 426.997 772.642 427.308 773.178C427.328 773.212 427.34 773.251 427.345 773.29C427.35 773.33 427.347 773.37 427.336 773.408C427.326 773.447 427.307 773.483 427.283 773.514C427.258 773.546 427.228 773.572 427.193 773.592C427.121 773.632 427.037 773.643 426.958 773.621C426.879 773.6 426.811 773.549 426.769 773.479C426.458 772.944 426.163 772.394 425.888 771.849L425.862 771.787ZM422.201 755.807L422.181 755.734C422.185 755.124 422.186 754.505 422.214 753.879C422.218 753.799 422.253 753.723 422.312 753.669C422.371 753.614 422.45 753.585 422.53 753.589C422.57 753.589 422.61 753.597 422.647 753.614C422.684 753.63 422.717 753.654 422.744 753.683C422.771 753.713 422.792 753.747 422.805 753.785C422.819 753.823 422.824 753.863 422.821 753.903C422.808 754.516 422.796 755.128 422.799 755.726C422.801 755.766 422.794 755.806 422.78 755.844C422.765 755.882 422.743 755.916 422.715 755.945C422.687 755.973 422.653 755.996 422.615 756.011C422.578 756.026 422.538 756.033 422.497 756.033C422.436 756.024 422.379 755.997 422.334 755.954C422.288 755.912 422.258 755.856 422.247 755.795L422.201 755.807ZM427.689 774.961C427.672 774.898 427.677 774.831 427.701 774.769C427.725 774.708 427.768 774.656 427.823 774.621C427.892 774.578 427.974 774.564 428.052 774.582C428.131 774.599 428.199 774.647 428.242 774.715C428.567 775.227 428.91 775.735 429.269 776.228C429.313 776.296 429.331 776.378 429.317 776.458C429.304 776.537 429.261 776.61 429.197 776.659C429.129 776.706 429.045 776.724 428.963 776.709C428.882 776.694 428.81 776.647 428.763 776.579C428.404 776.086 428.056 775.56 427.731 775.048L427.689 774.961ZM422.332 752.119L422.305 752.019C422.357 751.406 422.418 750.79 422.491 750.182C422.495 750.142 422.508 750.103 422.527 750.067C422.547 750.032 422.573 750.001 422.605 749.976C422.637 749.951 422.674 749.933 422.712 749.922C422.751 749.911 422.792 749.909 422.832 749.914C422.873 749.918 422.911 749.93 422.947 749.95C422.982 749.97 423.013 749.996 423.038 750.028C423.063 750.059 423.082 750.096 423.092 750.135C423.103 750.174 423.106 750.214 423.101 750.254C423.026 750.854 422.962 751.46 422.919 752.07C422.912 752.15 422.873 752.224 422.811 752.276C422.75 752.327 422.67 752.352 422.59 752.345C422.539 752.33 422.492 752.302 422.456 752.264C422.42 752.225 422.394 752.177 422.383 752.125L422.332 752.119ZM429.821 777.956C429.807 777.898 429.808 777.838 429.826 777.781C429.844 777.724 429.877 777.673 429.922 777.634C429.955 777.595 429.997 777.565 430.045 777.546C430.093 777.527 430.145 777.52 430.196 777.526C430.247 777.531 430.296 777.55 430.338 777.579C430.381 777.608 430.415 777.647 430.439 777.692C430.811 778.162 431.195 778.639 431.595 779.102C431.622 779.132 431.642 779.167 431.654 779.205C431.667 779.243 431.672 779.284 431.669 779.324C431.666 779.364 431.655 779.403 431.637 779.439C431.619 779.475 431.594 779.506 431.563 779.532C431.501 779.584 431.421 779.609 431.341 779.603C431.26 779.597 431.185 779.56 431.131 779.501C430.729 779.029 430.334 778.545 429.95 778.069L429.821 777.956ZM422.778 748.465C422.759 748.428 422.748 748.388 422.746 748.346C422.849 747.739 422.961 747.13 423.084 746.527C423.091 746.488 423.107 746.45 423.129 746.416C423.151 746.383 423.179 746.354 423.212 746.331C423.246 746.309 423.283 746.293 423.322 746.285C423.362 746.277 423.403 746.277 423.442 746.284C423.523 746.301 423.595 746.348 423.641 746.417C423.687 746.486 423.704 746.57 423.688 746.651C423.562 747.244 423.448 747.844 423.352 748.439C423.346 748.479 423.333 748.517 423.313 748.551C423.292 748.586 423.265 748.616 423.234 748.64C423.202 748.664 423.165 748.682 423.127 748.692C423.088 748.702 423.047 748.704 423.008 748.698C422.962 748.678 422.922 748.646 422.89 748.607C422.859 748.567 422.838 748.521 422.829 748.471L422.778 748.465ZM432.231 780.738C432.217 780.687 432.217 780.632 432.23 780.58C432.244 780.528 432.271 780.481 432.309 780.443C432.338 780.414 432.373 780.392 432.411 780.377C432.449 780.362 432.489 780.355 432.53 780.356C432.57 780.357 432.61 780.366 432.647 780.383C432.684 780.4 432.718 780.424 432.745 780.454C433.168 780.891 433.599 781.325 434.072 781.729C434.129 781.787 434.162 781.865 434.163 781.947C434.165 782.028 434.136 782.107 434.082 782.168C434.054 782.197 434.021 782.22 433.984 782.236C433.947 782.252 433.908 782.261 433.868 782.261C433.828 782.262 433.788 782.255 433.751 782.24C433.713 782.225 433.679 782.203 433.651 782.176C433.203 781.755 432.769 781.311 432.314 780.864C432.285 780.832 432.261 780.795 432.245 780.754L432.231 780.738ZM423.515 744.87C423.488 744.826 423.475 744.775 423.476 744.724C423.629 744.123 423.785 743.531 423.978 742.93C424.004 742.853 424.058 742.788 424.13 742.749C424.201 742.709 424.285 742.699 424.364 742.719C424.442 742.744 424.507 742.798 424.546 742.87C424.585 742.941 424.596 743.025 424.576 743.104C424.399 743.691 424.241 744.274 424.066 744.87C424.057 744.91 424.04 744.947 424.017 744.98C423.993 745.013 423.963 745.041 423.928 745.062C423.894 745.083 423.855 745.098 423.815 745.104C423.775 745.11 423.734 745.108 423.694 745.097C423.662 745.069 423.637 745.033 423.619 744.994C423.602 744.955 423.593 744.912 423.593 744.869L423.515 744.87ZM434.882 783.28C434.87 783.23 434.87 783.179 434.882 783.129C434.895 783.079 434.919 783.034 434.953 782.996C435.009 782.938 435.085 782.903 435.165 782.897C435.246 782.892 435.326 782.917 435.389 782.968C435.84 783.367 436.32 783.76 436.794 784.134C436.856 784.186 436.895 784.259 436.903 784.339C436.912 784.419 436.889 784.499 436.84 784.563C436.816 784.595 436.786 784.622 436.751 784.642C436.716 784.662 436.678 784.675 436.638 784.68C436.598 784.685 436.558 784.682 436.519 784.672C436.48 784.661 436.444 784.643 436.412 784.619C435.926 784.238 435.445 783.836 434.981 783.43C434.94 783.395 434.91 783.348 434.896 783.296L434.882 783.28ZM424.599 741.32C424.584 741.261 424.588 741.198 424.61 741.141C424.807 740.558 425.026 739.979 425.247 739.409C425.261 739.37 425.283 739.335 425.311 739.304C425.339 739.274 425.373 739.25 425.411 739.233C425.449 739.217 425.49 739.208 425.531 739.208C425.573 739.208 425.614 739.216 425.652 739.232C425.689 739.247 425.723 739.27 425.751 739.298C425.78 739.326 425.802 739.36 425.818 739.396C425.833 739.433 425.841 739.473 425.841 739.513C425.841 739.553 425.833 739.593 425.818 739.63C425.597 740.199 425.375 740.73 425.197 741.347C425.167 741.423 425.11 741.484 425.037 741.518C424.964 741.552 424.88 741.557 424.803 741.531C424.758 741.516 424.717 741.491 424.684 741.457C424.651 741.423 424.627 741.382 424.613 741.336L424.599 741.32ZM437.823 785.547C437.812 785.503 437.811 785.458 437.819 785.413C437.827 785.368 437.845 785.326 437.872 785.289C437.895 785.257 437.925 785.23 437.959 785.209C437.994 785.188 438.032 785.175 438.071 785.169C438.111 785.163 438.151 785.164 438.19 785.174C438.229 785.184 438.265 785.201 438.297 785.224C438.783 785.566 439.305 785.937 439.811 786.243C439.881 786.285 439.932 786.353 439.953 786.431C439.974 786.51 439.964 786.594 439.924 786.665C439.904 786.701 439.877 786.732 439.845 786.757C439.813 786.782 439.776 786.8 439.737 786.811C439.697 786.821 439.656 786.824 439.616 786.818C439.576 786.812 439.537 786.799 439.502 786.778C438.98 786.446 438.457 786.075 437.965 785.745C437.928 785.723 437.896 785.693 437.871 785.657C437.846 785.621 437.829 785.581 437.821 785.538L437.823 785.547ZM425.952 737.895C425.934 737.828 425.939 737.757 425.967 737.694C426.218 737.127 426.493 736.572 426.758 736.02C426.777 735.984 426.804 735.953 426.836 735.928C426.869 735.903 426.905 735.885 426.945 735.874C426.984 735.864 427.025 735.861 427.066 735.867C427.106 735.872 427.145 735.886 427.18 735.907C427.249 735.947 427.3 736.013 427.32 736.091C427.341 736.168 427.33 736.25 427.291 736.319C427.023 736.862 426.765 737.442 426.507 737.982C426.467 738.051 426.401 738.101 426.323 738.122C426.246 738.143 426.164 738.132 426.094 738.093C426.06 738.074 426.031 738.048 426.007 738.017C425.983 737.986 425.967 737.951 425.957 737.913L425.952 737.895ZM440.958 787.547C440.942 787.467 440.954 787.384 440.993 787.312C441.037 787.244 441.104 787.194 441.182 787.173C441.261 787.152 441.344 787.162 441.416 787.199C441.94 787.501 442.482 787.798 443.019 788.076C443.088 788.117 443.139 788.183 443.159 788.26C443.18 788.337 443.169 788.419 443.13 788.489C443.088 788.556 443.022 788.604 442.945 788.625C442.868 788.645 442.787 788.636 442.717 788.599C442.158 788.316 441.579 788.029 441.081 787.711C441.023 787.671 440.98 787.614 440.958 787.547V787.547ZM427.64 734.616C427.62 734.537 427.629 734.455 427.666 734.383C427.973 733.839 428.291 733.302 428.615 732.784C428.656 732.714 428.724 732.663 428.803 732.642C428.882 732.621 428.966 732.631 429.037 732.671C429.106 732.711 429.156 732.777 429.177 732.854C429.198 732.932 429.187 733.014 429.148 733.083C428.834 733.599 428.522 734.124 428.222 734.656C428.18 734.726 428.113 734.777 428.034 734.798C427.955 734.819 427.871 734.809 427.8 734.769C427.758 734.761 427.719 734.744 427.685 734.719C427.651 734.694 427.623 734.662 427.603 734.625L427.64 734.616ZM444.27 789.215C444.249 789.146 444.254 789.072 444.282 789.005C444.324 788.935 444.391 788.884 444.47 788.863C444.549 788.842 444.633 788.853 444.704 788.892C445.253 789.139 445.819 789.38 446.388 789.591C446.462 789.622 446.522 789.68 446.555 789.754C446.587 789.827 446.59 789.911 446.563 789.986C446.55 790.025 446.529 790.06 446.501 790.09C446.474 790.12 446.44 790.144 446.403 790.16C446.366 790.176 446.326 790.185 446.285 790.185C446.244 790.185 446.204 790.177 446.167 790.161C445.587 789.943 445.057 789.692 444.451 789.451C444.394 789.441 444.34 789.415 444.297 789.376C444.254 789.338 444.222 789.288 444.205 789.232L444.27 789.215ZM429.623 731.483C429.609 731.44 429.605 731.395 429.612 731.35C429.619 731.306 429.636 731.264 429.663 731.227C430.019 730.719 430.377 730.221 430.756 729.727C430.78 729.695 430.811 729.669 430.845 729.649C430.88 729.629 430.918 729.616 430.958 729.61C430.998 729.605 431.038 729.608 431.077 729.618C431.116 729.629 431.152 729.647 431.184 729.671C431.249 729.722 431.292 729.796 431.302 729.878C431.313 729.959 431.292 730.042 431.242 730.108C430.876 730.579 430.518 731.077 430.169 731.573C430.127 731.643 430.06 731.694 429.981 731.715C429.902 731.736 429.818 731.726 429.747 731.686C429.704 731.669 429.666 731.644 429.634 731.612C429.601 731.581 429.576 731.542 429.559 731.5L429.623 731.483ZM447.704 790.535C447.686 790.481 447.687 790.421 447.708 790.367C447.734 790.29 447.789 790.225 447.861 790.187C447.934 790.15 448.019 790.142 448.097 790.165C448.67 790.356 449.258 790.532 449.84 790.681C449.879 790.691 449.915 790.709 449.948 790.733C449.98 790.757 450.007 790.788 450.027 790.823C450.047 790.857 450.061 790.896 450.066 790.936C450.071 790.976 450.069 791.016 450.058 791.055C450.036 791.132 449.984 791.198 449.915 791.239C449.845 791.279 449.762 791.292 449.683 791.273C449.088 791.108 448.49 790.934 447.904 790.767C447.848 790.756 447.796 790.729 447.754 790.69C447.712 790.651 447.682 790.601 447.668 790.545L447.704 790.535ZM431.861 728.567C431.848 728.519 431.846 728.468 431.857 728.419C431.868 728.369 431.891 728.324 431.924 728.285C432.319 727.816 432.736 727.352 433.157 726.905C433.212 726.846 433.287 726.812 433.368 726.809C433.448 726.806 433.526 726.834 433.585 726.889C433.645 726.945 433.68 727.022 433.684 727.103C433.688 727.185 433.659 727.265 433.604 727.325C433.19 727.76 432.783 728.223 432.384 728.683C432.359 728.714 432.327 728.74 432.291 728.758C432.255 728.777 432.216 728.789 432.176 728.792C432.136 728.795 432.095 728.791 432.056 728.778C432.018 728.766 431.982 728.746 431.952 728.72C431.889 728.689 431.836 728.643 431.797 728.584L431.861 728.567ZM451.257 791.49C451.233 791.449 451.22 791.401 451.22 791.353C451.237 791.274 451.285 791.206 451.352 791.162C451.42 791.118 451.502 791.103 451.581 791.119C452.185 791.242 452.786 791.357 453.38 791.443C453.42 791.449 453.458 791.462 453.492 791.482C453.526 791.503 453.556 791.53 453.58 791.562C453.603 791.595 453.62 791.631 453.628 791.67C453.637 791.709 453.638 791.75 453.63 791.789C453.625 791.828 453.612 791.866 453.591 791.901C453.571 791.935 453.544 791.965 453.512 791.989C453.48 792.013 453.444 792.031 453.405 792.041C453.367 792.051 453.326 792.053 453.287 792.048C452.681 791.954 452.07 791.843 451.457 791.722C451.397 791.715 451.34 791.692 451.294 791.654C451.247 791.616 451.212 791.565 451.193 791.508L451.257 791.49ZM434.378 725.881C434.364 725.83 434.364 725.775 434.378 725.723C434.392 725.672 434.419 725.624 434.456 725.586C434.907 725.164 435.365 724.747 435.832 724.334C435.862 724.307 435.898 724.287 435.936 724.275C435.974 724.262 436.014 724.257 436.055 724.26C436.095 724.263 436.134 724.274 436.17 724.292C436.206 724.31 436.238 724.335 436.264 724.366C436.29 724.396 436.31 724.431 436.323 724.469C436.336 724.507 436.341 724.548 436.338 724.588C436.335 724.628 436.324 724.667 436.306 724.703C436.288 724.739 436.262 724.77 436.232 724.797C435.777 725.193 435.319 725.61 434.89 726.029C434.861 726.058 434.826 726.08 434.788 726.095C434.751 726.11 434.71 726.117 434.67 726.116C434.629 726.115 434.589 726.105 434.552 726.089C434.515 726.072 434.481 726.048 434.454 726.018C434.395 725.996 434.345 725.953 434.314 725.899L434.378 725.881ZM454.908 792.076L454.881 791.975C454.89 791.894 454.93 791.819 454.994 791.767C455.057 791.716 455.138 791.691 455.22 791.698C455.675 791.743 456.136 791.777 456.593 791.792L457.041 791.81C457.121 791.813 457.197 791.848 457.252 791.907C457.306 791.966 457.335 792.044 457.332 792.125C457.332 792.165 457.323 792.205 457.307 792.242C457.291 792.279 457.268 792.312 457.239 792.34C457.209 792.368 457.175 792.39 457.137 792.404C457.1 792.419 457.059 792.426 457.019 792.424L456.571 792.407C456.094 792.387 455.632 792.353 455.159 792.313C455.081 792.315 455.006 792.29 454.945 792.241C454.885 792.192 454.845 792.123 454.831 792.047L454.908 792.076ZM458.592 792.2L458.573 792.127C458.572 792.046 458.603 791.968 458.658 791.909C458.714 791.85 458.791 791.815 458.872 791.811C459.469 791.799 460.082 791.773 460.699 791.725C460.738 791.722 460.778 791.726 460.816 791.738C460.853 791.751 460.888 791.77 460.918 791.796C460.948 791.822 460.972 791.854 460.99 791.889C461.007 791.925 461.017 791.963 461.019 792.003C461.026 792.083 461.001 792.163 460.95 792.224C460.898 792.286 460.824 792.325 460.743 792.332C460.117 792.382 459.495 792.41 458.889 792.425C458.848 792.434 458.805 792.434 458.764 792.426C458.722 792.418 458.683 792.401 458.648 792.378C458.613 792.354 458.584 792.323 458.561 792.288C458.538 792.253 458.523 792.213 458.516 792.172L458.592 792.2ZM462.268 791.924L462.255 791.879C462.246 791.799 462.269 791.72 462.318 791.657C462.368 791.594 462.44 791.553 462.519 791.543C463.153 791.459 463.76 791.375 464.341 791.291C464.381 791.285 464.421 791.286 464.46 791.295C464.498 791.304 464.535 791.321 464.567 791.344C464.599 791.368 464.626 791.398 464.646 791.432C464.666 791.466 464.679 791.504 464.684 791.543C464.691 791.583 464.69 791.623 464.682 791.662C464.673 791.702 464.656 791.739 464.633 791.771C464.61 791.804 464.58 791.832 464.546 791.853C464.512 791.874 464.474 791.888 464.434 791.895C463.82 791.99 463.213 792.074 462.594 792.151C462.551 792.169 462.504 792.175 462.458 792.171C462.411 792.167 462.367 792.151 462.327 792.126C462.288 792.102 462.255 792.068 462.231 792.028C462.208 791.987 462.194 791.942 462.191 791.896L462.268 791.924ZM465.903 791.355C465.896 791.316 465.897 791.275 465.906 791.236C465.915 791.197 465.932 791.16 465.955 791.127C465.978 791.094 466.008 791.067 466.042 791.045C466.076 791.024 466.114 791.01 466.153 791.003C466.741 790.846 467.348 790.762 467.943 790.633C467.983 790.623 468.024 790.622 468.064 790.629C468.105 790.636 468.143 790.651 468.177 790.673C468.212 790.695 468.241 790.723 468.264 790.757C468.287 790.79 468.303 790.828 468.312 790.868C468.321 790.908 468.322 790.949 468.315 790.989C468.309 791.029 468.294 791.068 468.272 791.102C468.25 791.136 468.221 791.166 468.187 791.189C468.154 791.212 468.116 791.228 468.076 791.236C467.479 791.395 466.865 791.491 466.265 791.602C466.218 791.625 466.167 791.635 466.115 791.633C466.063 791.63 466.013 791.614 465.969 791.586C465.925 791.559 465.889 791.52 465.864 791.475C465.839 791.429 465.826 791.378 465.827 791.326L465.903 791.355ZM469.503 790.579C469.493 790.54 469.49 790.5 469.496 790.46C469.502 790.42 469.516 790.382 469.537 790.347C469.559 790.313 469.587 790.284 469.62 790.261C469.653 790.238 469.691 790.222 469.73 790.214C470.327 790.054 470.914 789.897 471.502 789.74C471.58 789.719 471.663 789.73 471.733 789.771C471.803 789.811 471.854 789.877 471.875 789.955V789.955C471.884 789.994 471.885 790.034 471.879 790.073C471.872 790.113 471.858 790.15 471.837 790.184C471.816 790.218 471.788 790.248 471.756 790.271C471.724 790.294 471.687 790.311 471.648 790.32C471.06 790.477 470.464 790.637 469.867 790.796C469.822 790.818 469.773 790.83 469.723 790.828C469.673 790.827 469.625 790.814 469.581 790.79C469.538 790.766 469.501 790.731 469.474 790.689C469.447 790.648 469.431 790.6 469.427 790.55L469.503 790.579ZM473.081 789.681C473.06 789.604 473.069 789.522 473.107 789.452C473.145 789.382 473.208 789.328 473.284 789.303C473.844 789.153 474.432 788.996 475.022 788.74C475.1 788.714 475.185 788.719 475.258 788.754C475.332 788.79 475.389 788.852 475.417 788.929C475.441 789.006 475.435 789.09 475.4 789.163C475.365 789.236 475.303 789.293 475.228 789.323C474.618 789.545 474.02 789.735 473.416 789.906C473.338 789.927 473.255 789.916 473.186 789.876C473.116 789.835 473.065 789.769 473.044 789.691L473.081 789.681ZM476.546 788.441C476.526 788.369 476.533 788.293 476.566 788.226C476.599 788.159 476.655 788.107 476.724 788.079C477.271 787.844 477.825 787.598 478.392 787.328C478.467 787.294 478.551 787.29 478.628 787.317C478.706 787.344 478.769 787.4 478.805 787.473C478.84 787.547 478.844 787.632 478.817 787.709C478.789 787.786 478.733 787.849 478.66 787.885C478.084 788.157 477.521 788.406 476.964 788.643C476.888 788.675 476.802 788.675 476.726 788.644C476.649 788.613 476.588 788.553 476.556 788.477L476.546 788.441ZM479.883 786.871C479.864 786.803 479.87 786.731 479.9 786.667C479.93 786.603 479.982 786.552 480.046 786.523C480.572 786.245 481.113 785.953 481.652 785.652C481.725 785.611 481.811 785.602 481.891 785.624C481.971 785.647 482.038 785.701 482.078 785.773C482.116 785.845 482.124 785.929 482.1 786.006C482.077 786.084 482.025 786.15 481.954 786.189C481.406 786.493 480.864 786.785 480.32 787.068C480.247 787.102 480.164 787.107 480.088 787.082C480.012 787.057 479.948 787.003 479.91 786.932L479.883 786.871ZM483.102 785.077C483.086 785.012 483.092 784.944 483.117 784.882C483.143 784.82 483.189 784.769 483.246 784.734C483.764 784.429 484.287 784.103 484.809 783.776C484.843 783.754 484.88 783.738 484.92 783.731C484.959 783.723 485 783.724 485.039 783.733C485.078 783.742 485.116 783.759 485.148 783.782C485.181 783.806 485.208 783.836 485.228 783.871C485.251 783.904 485.266 783.941 485.274 783.981C485.281 784.02 485.281 784.061 485.272 784.1C485.263 784.139 485.246 784.176 485.222 784.208C485.199 784.241 485.169 784.268 485.134 784.289C484.614 784.624 484.091 784.95 483.564 785.258C483.53 785.279 483.491 785.294 483.451 785.3C483.411 785.306 483.371 785.304 483.331 785.295C483.292 785.285 483.255 785.268 483.223 785.244C483.19 785.22 483.163 785.19 483.143 785.155L483.102 785.077ZM486.211 783.097C486.193 783.035 486.196 782.968 486.218 782.907C486.241 782.847 486.283 782.795 486.337 782.759C486.845 782.417 487.342 782.068 487.837 781.71C487.869 781.686 487.905 781.668 487.945 781.658C487.984 781.647 488.024 781.645 488.065 781.651C488.105 781.657 488.143 781.67 488.178 781.691C488.212 781.712 488.243 781.739 488.266 781.772C488.313 781.839 488.332 781.921 488.319 782.002C488.306 782.083 488.261 782.155 488.195 782.203C487.701 782.561 487.198 782.922 486.68 783.266C486.614 783.312 486.532 783.331 486.453 783.317C486.374 783.303 486.303 783.259 486.257 783.193L486.211 783.097ZM489.191 780.926C489.175 780.867 489.178 780.805 489.197 780.747C489.217 780.69 489.253 780.639 489.3 780.602C489.79 780.225 490.268 779.842 490.725 779.455C490.755 779.427 490.791 779.407 490.83 779.394C490.869 779.381 490.91 779.376 490.951 779.38C490.992 779.384 491.031 779.396 491.067 779.416C491.103 779.436 491.134 779.463 491.159 779.496C491.185 779.526 491.205 779.56 491.217 779.598C491.23 779.635 491.234 779.675 491.231 779.714C491.228 779.754 491.217 779.792 491.198 779.827C491.18 779.862 491.155 779.893 491.124 779.918C490.651 780.319 490.174 780.702 489.678 781.09C489.646 781.115 489.61 781.133 489.571 781.144C489.533 781.154 489.493 781.157 489.453 781.152C489.413 781.147 489.375 781.135 489.34 781.115C489.305 781.095 489.275 781.069 489.25 781.037L489.191 780.926ZM489.41 772.324C489.25 771.728 489.17 771.102 489.086 770.496C489.079 770.456 489.08 770.415 489.09 770.375C489.099 770.336 489.117 770.298 489.141 770.266C489.166 770.234 489.197 770.207 489.233 770.187C489.268 770.167 489.307 770.155 489.348 770.151C489.388 770.145 489.429 770.147 489.468 770.157C489.507 770.167 489.543 770.185 489.576 770.209C489.608 770.233 489.635 770.264 489.655 770.299C489.675 770.333 489.688 770.372 489.694 770.412C489.773 771 489.887 771.607 490.014 772.192C490.023 772.232 490.025 772.273 490.018 772.313C490.011 772.353 489.996 772.391 489.974 772.426C489.952 772.46 489.924 772.489 489.89 772.512C489.856 772.535 489.818 772.551 489.778 772.559C489.732 772.581 489.681 772.591 489.63 772.588C489.579 772.585 489.53 772.57 489.486 772.544C489.442 772.518 489.405 772.482 489.379 772.439C489.352 772.395 489.337 772.346 489.333 772.295L489.41 772.324ZM489.887 774.101C489.864 774.026 489.872 773.944 489.908 773.874C489.944 773.804 490.006 773.751 490.081 773.725C490.16 773.702 490.244 773.71 490.316 773.747C490.389 773.784 490.444 773.849 490.47 773.926C490.63 774.521 490.87 775.086 491.103 775.623C491.132 775.699 491.131 775.783 491.1 775.859C491.069 775.935 491.011 775.996 490.937 776.03C490.899 776.046 490.859 776.054 490.819 776.053C490.779 776.053 490.739 776.045 490.702 776.03C490.664 776.014 490.631 775.991 490.602 775.962C490.574 775.934 490.552 775.899 490.537 775.862C490.3 775.307 490.082 774.717 489.88 774.074L489.887 774.101ZM488.915 768.686L488.898 768.621C488.867 767.998 488.873 767.373 488.917 766.751C488.922 766.669 488.959 766.593 489.02 766.538C489.08 766.483 489.16 766.454 489.242 766.457C489.282 766.46 489.322 766.47 489.358 766.488C489.394 766.506 489.426 766.531 489.453 766.561C489.479 766.592 489.499 766.627 489.512 766.665C489.525 766.704 489.529 766.744 489.526 766.784C489.485 767.387 489.48 767.992 489.511 768.595C489.512 768.635 489.506 768.676 489.492 768.714C489.477 768.752 489.456 768.786 489.428 768.816C489.4 768.845 489.367 768.869 489.329 768.885C489.292 768.901 489.252 768.91 489.212 768.911C489.171 768.919 489.129 768.919 489.088 768.911C489.047 768.902 489.008 768.886 488.974 768.862C488.94 768.838 488.911 768.807 488.889 768.771C488.867 768.736 488.853 768.696 488.848 768.654L488.915 768.686ZM491.341 777.464C491.324 777.399 491.328 777.33 491.354 777.268C491.38 777.206 491.427 777.154 491.485 777.121C491.556 777.084 491.638 777.075 491.715 777.096C491.793 777.118 491.859 777.167 491.9 777.236C492.05 777.5 492.218 777.76 492.381 778.001C492.735 777.67 493.087 777.331 493.42 776.996C493.479 776.938 493.558 776.905 493.641 776.905C493.724 776.905 493.804 776.937 493.863 776.996C493.916 777.055 493.946 777.133 493.945 777.212C493.945 777.292 493.915 777.369 493.861 777.428C493.502 777.779 493.128 778.145 492.733 778.506L492.907 778.714C492.958 778.779 492.981 778.861 492.971 778.943C492.962 779.024 492.921 779.099 492.857 779.15C492.825 779.175 492.789 779.193 492.751 779.204C492.712 779.214 492.672 779.217 492.632 779.212C492.592 779.207 492.554 779.195 492.519 779.175C492.484 779.155 492.454 779.129 492.429 779.097L492.149 778.75L492.083 778.689C492.057 778.641 492.043 778.588 492.042 778.533C491.82 778.22 491.611 777.883 491.409 777.534L491.341 777.464ZM489.192 765.027C489.171 764.984 489.158 764.938 489.155 764.89C489.289 764.263 489.507 763.656 489.803 763.087C489.845 763.017 489.912 762.966 489.991 762.945C490.07 762.924 490.154 762.934 490.225 762.974C490.261 762.993 490.292 763.02 490.317 763.052C490.342 763.084 490.361 763.121 490.371 763.16C490.382 763.2 490.385 763.241 490.379 763.281C490.373 763.321 490.359 763.36 490.338 763.395C490.074 763.919 489.876 764.473 489.748 765.045C489.74 765.085 489.724 765.121 489.701 765.154C489.678 765.187 489.649 765.214 489.615 765.235C489.581 765.256 489.543 765.27 489.504 765.276C489.464 765.282 489.424 765.28 489.386 765.27C489.317 765.261 489.255 765.228 489.207 765.179C489.16 765.129 489.131 765.064 489.125 764.996L489.192 765.027ZM493.665 780.289C493.652 780.243 493.65 780.194 493.66 780.148C493.669 780.101 493.69 780.057 493.72 780.019C493.772 779.958 493.846 779.919 493.926 779.91C494.006 779.901 494.086 779.924 494.15 779.973C494.488 780.245 494.857 780.476 495.25 780.661C495.385 780.723 495.522 780.794 495.666 780.854C495.734 780.896 495.782 780.962 495.803 781.038C495.823 781.115 495.814 781.196 495.777 781.266C495.757 781.302 495.73 781.333 495.698 781.358C495.666 781.383 495.629 781.401 495.59 781.412C495.55 781.422 495.509 781.425 495.469 781.419C495.428 781.414 495.39 781.4 495.355 781.379C495.211 781.319 495.073 781.248 494.927 781.179C494.504 780.963 494.105 780.705 493.736 780.408C493.675 780.373 493.627 780.321 493.597 780.258L493.665 780.289ZM494.618 775.959C494.604 775.911 494.602 775.86 494.613 775.811C494.624 775.761 494.647 775.716 494.68 775.678C495.103 775.201 495.498 774.732 495.848 774.275C495.901 774.213 495.977 774.173 496.058 774.164C496.14 774.155 496.222 774.177 496.288 774.226C496.319 774.251 496.345 774.282 496.365 774.318C496.384 774.353 496.397 774.391 496.401 774.431C496.405 774.471 496.402 774.512 496.39 774.55C496.379 774.589 496.36 774.625 496.334 774.656C495.978 775.124 495.603 775.598 495.143 776.084C495.087 776.143 495.01 776.179 494.928 776.182C494.846 776.186 494.766 776.157 494.705 776.103C494.667 776.089 494.633 776.065 494.606 776.035C494.579 776.004 494.56 775.968 494.55 775.928L494.618 775.959ZM491.036 761.962C491.019 761.897 491.023 761.828 491.049 761.765C491.075 761.703 491.121 761.652 491.18 761.619C491.378 761.507 491.59 761.42 491.81 761.362C492.254 761.249 492.717 761.236 493.167 761.323C493.207 761.33 493.245 761.345 493.278 761.367C493.312 761.389 493.341 761.418 493.364 761.451C493.386 761.484 493.402 761.521 493.41 761.561C493.418 761.6 493.419 761.641 493.411 761.68C493.404 761.719 493.39 761.756 493.369 761.79C493.348 761.823 493.32 761.852 493.288 761.874C493.255 761.897 493.218 761.912 493.18 761.92C493.141 761.928 493.101 761.928 493.062 761.921C492.699 761.856 492.327 761.869 491.97 761.957C491.799 762.001 491.635 762.068 491.482 762.157C491.447 762.176 491.409 762.189 491.369 762.194C491.33 762.198 491.289 762.195 491.251 762.185C491.212 762.174 491.176 762.156 491.145 762.131C491.113 762.107 491.087 762.076 491.067 762.042L491.036 761.962ZM496.941 781.937C496.924 781.875 496.927 781.809 496.949 781.748C496.963 781.71 496.984 781.675 497.011 781.645C497.038 781.615 497.071 781.591 497.107 781.574C497.144 781.557 497.184 781.547 497.224 781.545C497.265 781.544 497.305 781.55 497.343 781.564C497.911 781.776 498.493 781.964 499.067 782.085C499.106 782.096 499.142 782.114 499.173 782.139C499.204 782.164 499.231 782.195 499.25 782.23C499.27 782.265 499.282 782.303 499.286 782.343C499.291 782.383 499.288 782.423 499.276 782.461C499.265 782.5 499.247 782.536 499.222 782.567C499.197 782.598 499.166 782.624 499.131 782.644C499.096 782.663 499.058 782.676 499.018 782.68C498.978 782.685 498.938 782.681 498.899 782.67C498.307 782.514 497.713 782.32 497.124 782.104C497.067 782.098 497.014 782.077 496.969 782.042C496.925 782.006 496.892 781.959 496.874 781.906L496.941 781.937ZM496.867 773.05C496.856 773.008 496.854 772.965 496.862 772.922C496.869 772.88 496.885 772.839 496.909 772.803C497.234 772.299 497.527 771.774 497.787 771.233C497.829 771.163 497.896 771.112 497.975 771.091C498.054 771.07 498.138 771.08 498.209 771.12C498.278 771.161 498.329 771.226 498.349 771.304C498.37 771.381 498.359 771.463 498.32 771.532C498.047 772.097 497.74 772.644 497.402 773.172C497.382 773.208 497.355 773.239 497.323 773.264C497.291 773.289 497.254 773.308 497.215 773.318C497.175 773.329 497.134 773.331 497.094 773.325C497.054 773.32 497.015 773.306 496.98 773.285C496.928 773.262 496.883 773.225 496.852 773.178C496.82 773.131 496.802 773.076 496.8 773.019L496.867 773.05ZM494.536 762.351C494.517 762.278 494.523 762.2 494.555 762.13C494.598 762.062 494.666 762.013 494.744 761.992C494.822 761.971 494.906 761.98 494.977 762.017C495.544 762.3 496.086 762.628 496.599 762.998C496.631 763.021 496.658 763.051 496.679 763.085C496.7 763.119 496.713 763.157 496.719 763.197C496.725 763.236 496.724 763.276 496.714 763.315C496.704 763.354 496.687 763.39 496.664 763.422C496.614 763.488 496.541 763.532 496.46 763.545C496.379 763.557 496.296 763.537 496.229 763.49C495.748 763.14 495.237 762.833 494.703 762.572C494.645 762.555 494.592 762.523 494.551 762.479C494.509 762.434 494.481 762.38 494.468 762.32L494.536 762.351ZM500.487 782.903C500.467 782.863 500.456 782.82 500.453 782.775C500.46 782.736 500.475 782.698 500.497 782.664C500.519 782.631 500.548 782.602 500.581 782.579C500.614 782.556 500.652 782.541 500.691 782.533C500.731 782.525 500.771 782.524 500.811 782.532C501.41 782.637 502.011 782.712 502.616 782.766C502.696 782.774 502.77 782.813 502.821 782.874C502.873 782.936 502.898 783.015 502.891 783.095C502.888 783.136 502.878 783.175 502.86 783.211C502.842 783.247 502.817 783.279 502.787 783.306C502.756 783.332 502.721 783.352 502.683 783.365C502.644 783.378 502.604 783.382 502.564 783.379C501.938 783.321 501.316 783.242 500.706 783.13C500.635 783.128 500.567 783.101 500.515 783.054C500.462 783.007 500.429 782.942 500.42 782.872L500.487 782.903ZM498.411 769.711C498.4 769.658 498.402 769.604 498.418 769.552C498.575 768.99 498.658 768.41 498.663 767.827C498.663 767.787 498.67 767.748 498.685 767.711C498.7 767.674 498.722 767.64 498.75 767.611C498.778 767.583 498.812 767.56 498.848 767.545C498.885 767.529 498.925 767.521 498.965 767.521C499.005 767.519 499.045 767.525 499.083 767.54C499.12 767.554 499.155 767.576 499.184 767.605C499.212 767.633 499.235 767.667 499.25 767.704C499.265 767.741 499.273 767.781 499.272 767.821C499.268 768.462 499.181 769.099 499.013 769.717C498.989 769.796 498.936 769.862 498.863 769.902C498.791 769.941 498.706 769.951 498.627 769.928C498.563 769.923 498.501 769.898 498.451 769.857C498.402 769.816 498.366 769.761 498.349 769.698L498.411 769.711ZM497.452 764.527C497.438 764.47 497.439 764.409 497.457 764.352C497.475 764.296 497.508 764.245 497.553 764.206C497.615 764.156 497.695 764.132 497.774 764.141C497.854 764.149 497.927 764.188 497.978 764.249C498.4 764.756 498.732 765.332 498.957 765.952C498.971 765.989 498.977 766.029 498.976 766.069C498.974 766.109 498.965 766.149 498.948 766.185C498.932 766.221 498.908 766.254 498.878 766.281C498.849 766.309 498.814 766.33 498.776 766.343C498.739 766.359 498.699 766.367 498.658 766.366C498.618 766.365 498.578 766.356 498.541 766.339C498.504 766.322 498.471 766.298 498.444 766.268C498.417 766.238 498.396 766.202 498.384 766.164C498.178 765.621 497.886 765.116 497.519 764.667C497.46 764.632 497.414 764.579 497.39 764.515L497.452 764.527ZM504.147 783.192L504.127 783.118C504.128 783.037 504.161 782.959 504.219 782.901C504.278 782.843 504.356 782.81 504.438 782.81C505.037 782.806 505.648 782.771 506.242 782.71C506.282 782.705 506.323 782.709 506.362 782.72C506.401 782.731 506.437 782.75 506.469 782.775C506.5 782.801 506.526 782.832 506.546 782.868C506.565 782.903 506.577 782.943 506.581 782.983C506.588 783.064 506.563 783.144 506.512 783.207C506.461 783.27 506.388 783.311 506.307 783.321C505.695 783.387 505.064 783.418 504.446 783.426C504.365 783.44 504.282 783.422 504.215 783.376C504.147 783.33 504.1 783.259 504.084 783.179L504.147 783.192ZM507.813 782.81C507.804 782.771 507.803 782.73 507.81 782.689C507.816 782.649 507.831 782.611 507.853 782.577C507.875 782.542 507.904 782.513 507.938 782.49C507.971 782.467 508.009 782.451 508.049 782.443C508.426 782.342 508.793 782.244 509.17 782.143C509.381 782.087 509.592 782.03 509.803 781.974C509.841 781.962 509.881 781.959 509.921 781.963C509.961 781.966 510 781.978 510.035 781.997C510.07 782.016 510.101 782.042 510.127 782.072C510.152 782.103 510.171 782.139 510.182 782.177C510.195 782.216 510.2 782.256 510.197 782.297C510.194 782.338 510.183 782.377 510.164 782.413C510.145 782.45 510.12 782.482 510.088 782.508C510.057 782.533 510.02 782.553 509.981 782.565C509.761 782.624 509.55 782.68 509.329 782.739C508.944 782.842 508.558 782.945 508.173 783.048C508.129 783.067 508.081 783.075 508.033 783.072C507.985 783.068 507.939 783.054 507.898 783.03C507.857 783.005 507.822 782.971 507.797 782.931C507.771 782.891 507.756 782.845 507.751 782.798L507.813 782.81ZM511.335 781.741C511.315 781.67 511.322 781.593 511.355 781.526C511.388 781.46 511.444 781.407 511.513 781.379C512.063 781.154 512.614 780.898 513.158 780.615C513.194 780.597 513.233 780.586 513.273 780.583C513.313 780.58 513.353 780.585 513.392 780.598C513.43 780.61 513.465 780.631 513.495 780.657C513.526 780.683 513.551 780.715 513.568 780.751C513.605 780.822 513.612 780.905 513.589 780.981C513.565 781.057 513.512 781.121 513.442 781.158C512.879 781.446 512.312 781.716 511.744 781.946C511.707 781.961 511.667 781.969 511.626 781.969C511.586 781.969 511.546 781.961 511.509 781.945C511.472 781.93 511.438 781.907 511.41 781.878C511.382 781.849 511.36 781.815 511.345 781.778L511.335 781.741ZM514.601 780.053C514.574 780.002 514.563 779.944 514.568 779.887C514.574 779.829 514.596 779.775 514.633 779.73C515.137 779.409 515.643 779.058 516.125 778.693C516.157 778.668 516.193 778.65 516.232 778.639C516.27 778.629 516.31 778.626 516.35 778.631C516.39 778.636 516.428 778.648 516.463 778.668C516.498 778.688 516.528 778.714 516.553 778.745C516.601 778.812 516.621 778.895 516.61 778.976C516.599 779.058 516.557 779.132 516.493 779.184C516.004 779.56 515.48 779.916 514.969 780.249C514.898 780.292 514.813 780.306 514.733 780.287C514.652 780.268 514.582 780.218 514.538 780.148L514.601 780.053ZM517.524 777.818C517.509 777.765 517.51 777.709 517.525 777.656C517.54 777.604 517.57 777.556 517.611 777.52C518.063 777.114 518.49 776.686 518.902 776.242C518.959 776.183 519.037 776.149 519.12 776.147C519.202 776.145 519.282 776.176 519.342 776.232C519.372 776.259 519.396 776.292 519.413 776.329C519.43 776.366 519.439 776.405 519.439 776.446C519.44 776.486 519.432 776.526 519.417 776.563C519.401 776.601 519.378 776.634 519.349 776.662C518.93 777.118 518.486 777.551 518.034 777.996C517.973 778.05 517.893 778.079 517.811 778.075C517.729 778.071 517.652 778.035 517.596 777.976L517.524 777.818ZM520.031 775.135C520.021 775.09 520.021 775.043 520.031 774.998C520.041 774.953 520.061 774.91 520.089 774.874C520.464 774.4 520.813 773.904 521.15 773.402C521.192 773.332 521.26 773.281 521.339 773.26C521.417 773.239 521.501 773.249 521.573 773.289C521.608 773.309 521.64 773.335 521.665 773.367C521.69 773.399 521.708 773.436 521.719 773.476C521.729 773.515 521.732 773.556 521.726 773.596C521.721 773.637 521.707 773.675 521.686 773.71C521.342 774.225 520.974 774.725 520.593 775.21C520.542 775.275 520.468 775.318 520.386 775.329C520.304 775.34 520.222 775.318 520.156 775.268C520.078 775.243 520.012 775.191 519.969 775.122L520.031 775.135ZM522.064 772.077C522.054 772.04 522.051 772.001 522.056 771.963C522.061 771.924 522.073 771.887 522.093 771.854C522.383 771.324 522.66 770.779 522.907 770.232C522.923 770.195 522.946 770.162 522.975 770.134C523.004 770.107 523.038 770.085 523.075 770.071C523.112 770.056 523.152 770.049 523.192 770.05C523.232 770.051 523.271 770.059 523.308 770.075C523.344 770.091 523.377 770.114 523.405 770.143C523.433 770.172 523.455 770.206 523.469 770.243C523.484 770.28 523.491 770.32 523.49 770.36C523.489 770.4 523.48 770.439 523.464 770.475C523.213 771.043 522.93 771.6 522.635 772.15C522.593 772.22 522.526 772.271 522.447 772.292C522.368 772.314 522.284 772.303 522.212 772.263C522.165 772.247 522.122 772.221 522.086 772.187C522.049 772.152 522.021 772.111 522.002 772.065L522.064 772.077ZM523.566 768.73C523.553 768.671 523.554 768.611 523.568 768.552C523.768 767.979 523.947 767.4 524.088 766.823C524.097 766.783 524.113 766.746 524.137 766.713C524.161 766.68 524.191 766.652 524.225 766.631C524.26 766.61 524.299 766.596 524.339 766.59C524.379 766.584 524.42 766.586 524.46 766.596C524.538 766.616 524.606 766.666 524.649 766.735C524.691 766.805 524.705 766.888 524.687 766.967C524.534 767.568 524.359 768.164 524.18 768.742C524.167 768.781 524.147 768.817 524.121 768.847C524.094 768.878 524.062 768.903 524.025 768.921C523.989 768.939 523.949 768.95 523.908 768.952C523.868 768.955 523.827 768.949 523.789 768.935C523.72 768.938 523.653 768.918 523.597 768.877C523.541 768.837 523.501 768.779 523.483 768.713L523.566 768.73ZM524.449 765.165L524.42 765.055C524.514 764.456 524.575 763.853 524.604 763.248C524.611 763.168 524.649 763.093 524.71 763.04C524.771 762.988 524.85 762.96 524.931 762.964C525.013 762.969 525.089 763.006 525.144 763.066C525.199 763.127 525.228 763.207 525.225 763.288C525.182 763.899 525.123 764.523 525.032 765.137C525.019 765.218 524.975 765.29 524.909 765.339C524.843 765.388 524.761 765.409 524.679 765.398C524.608 765.397 524.539 765.37 524.485 765.324C524.431 765.277 524.396 765.213 524.384 765.143L524.449 765.165Z" fill="#FAB76B"/>
<defs>
<filter id="filter0_f_263_5302" x="1089.4" y="93.4" width="650.2" height="648.2" filterUnits="userSpaceOnUse" color-interpolation-filters="sRGB">
<feFlood flood-opacity="0" result="BackgroundImageFix"/>
<feBlend mode="normal" in="SourceGraphic" in2="BackgroundImageFix" result="shape"/>
<feGaussianBlur stdDeviation="94.3" result="effect1_foregroundBlur_263_5302"/>
</filter>
<filter id="filter1_f_263_5302" x="0.699997" y="0.699997" width="526.6" height="521.6" filterUnits="userSpaceOnUse" color-interpolation-filters="sRGB">
<feFlood flood-opacity="0" result="BackgroundImageFix"/>
<feBlend mode="normal" in="SourceGraphic" in2="BackgroundImageFix" result="shape"/>
<feGaussianBlur stdDeviation="85.15" result="effect1_foregroundBlur_263_5302"/>
</filter>
</defs>
</svg>
